<svg width="22" height="14" viewBox="0 0 22 14" fill="none" xmlns="http://www.w3.org/2000/svg">
<path fill-rule="evenodd" clip-rule="evenodd" d="M9.05089 6.32739C9.50731 6.09382 9.85262 5.83394 10.088 5.55084C10.5084 5.04394 10.7168 4.37194 10.7168 3.53913C10.7168 2.73017 10.5084 2.03616 10.0934 1.45528C9.40161 0.509347 8.22814 0.0250699 6.57002 0H0V13.6557H6.12621C6.81684 13.6557 7.45583 13.5958 8.04677 13.4723C8.63831 13.3476 9.14938 13.1201 9.58238 12.7863C9.96793 12.4952 10.2886 12.1369 10.5445 11.7119C10.9498 11.0699 11.1516 10.3435 11.1516 9.5345C11.1516 8.74939 10.9745 8.08167 10.6225 7.53319C10.267 6.98349 9.74392 6.58237 9.05089 6.32739ZM2.71028 2.37124H5.66979C6.32019 2.37124 6.85588 2.44278 7.27747 2.58464C7.76391 2.78948 8.00713 3.20956 8.00713 3.84731C8.00713 4.41903 7.82216 4.81892 7.45463 5.04516C7.08469 5.2714 6.60485 5.38452 6.01631 5.38452H2.71028V2.37124ZM7.38857 11.0454C7.06127 11.205 6.60065 11.2857 6.01091 11.2857H2.71028V7.64387H6.05775C6.63968 7.64876 7.0937 7.72703 7.41739 7.875C7.99512 8.1416 8.28219 8.62893 8.28219 9.34067C8.28219 10.1802 7.98491 10.7464 7.38857 11.0454ZM14.0577 0.63653H19.8836V2.33578H14.0577V0.63653ZM19.3701 3.76282C20.0728 4.07711 20.6511 4.57607 21.1063 5.25662C21.5213 5.85708 21.788 6.55353 21.9093 7.34476C21.9807 7.80763 22.009 8.4778 21.9976 9.34974H14.6726C14.7165 10.3617 15.063 11.0722 15.7254 11.4795C16.126 11.7326 16.6088 11.8598 17.1751 11.8598C17.7715 11.8598 18.2591 11.7051 18.6333 11.3975C18.8387 11.2294 19.02 10.9982 19.175 10.7023H21.8588C21.788 11.2997 21.4619 11.9093 20.8853 12.5275C19.9845 13.5089 18.724 13.9999 17.1031 13.9999C15.7638 13.9999 14.5832 13.5865 13.5628 12.7574C12.5371 11.9301 12.0272 10.5812 12.0272 8.71565C12.0272 6.96565 12.489 5.6235 13.4115 4.68919C14.3363 3.75732 15.5326 3.28833 17.0058 3.28833C17.8814 3.28833 18.6693 3.4467 19.3701 3.76282ZM14.7369 7.60718C14.833 6.94986 15.0672 6.4289 15.4383 6.04429C15.8095 5.65968 16.3344 5.46768 17.007 5.46768C17.6279 5.46768 18.1468 5.64806 18.5684 6.01066C18.9852 6.3757 19.2206 6.90584 19.268 7.60718H14.7369Z" fill="white"/>
</svg>
