<svg fill="none" xmlns="http://www.w3.org/2000/svg" viewBox="0 0 128 34" class="w-full"><path d="M16.181 12.243c-.594 0-1.103.082-1.613.163-.51.163-.934.326-1.274.57-.424.244-.764.489-1.018.815-.34.325-.595.651-.85.977-.34-.733-.934-1.385-1.613-1.873-.68-.489-1.613-.733-2.717-.733a7.93 7.93 0 0 0-1.528.162c-.425.163-.85.326-1.19.57-.339.245-.678.49-.933.815-.255.326-.51.652-.764.896v-2.199H.643v12.95H2.68v-7.411c0-.57.085-1.14.254-1.63.17-.488.425-.895.765-1.303.34-.407.764-.651 1.188-.814.425-.163.934-.326 1.529-.326 1.104 0 1.953.326 2.547.978.594.651.934 1.629.934 2.85v7.575h1.953v-7.493c0-.652.085-1.222.34-1.71.17-.49.51-.897.849-1.304.34-.326.764-.57 1.189-.815a4.117 4.117 0 0 1 1.443-.244c1.104 0 1.953.326 2.547.978.595.651.934 1.629.934 2.932v7.575h2.038V17.13c0-1.629-.424-2.932-1.358-3.828-.85-.57-2.123-1.059-3.651-1.059ZM35.626 19.085c0 .651-.085 1.303-.34 1.955-.254.57-.594 1.14-1.018 1.547-.425.489-.934.815-1.614 1.059a5.318 5.318 0 0 1-2.038.407 5.22 5.22 0 0 1-1.953-.407c-.594-.244-1.103-.652-1.613-1.059-.424-.489-.764-.977-1.019-1.629-.255-.57-.34-1.303-.34-1.955v-.081c0-.652.085-1.303.34-1.955.255-.57.595-1.14 1.02-1.629.424-.489.933-.814 1.527-1.059a5.316 5.316 0 0 1 2.038-.407c.68 0 1.359.163 1.953.407.595.245 1.104.652 1.614 1.059.424.489.849.977 1.019 1.629.254.733.424 1.385.424 2.118Zm0-4.806c-.594-.57-1.358-1.059-2.207-1.466-.85-.326-1.784-.57-2.803-.57-1.018 0-1.953.163-2.802.57-.849.326-1.613.815-2.207 1.466-.595.652-1.104 1.303-1.444 2.118-.34.814-.51 1.71-.51 2.606v.082c0 .896.17 1.792.51 2.606.34.815.85 1.548 1.444 2.118.594.651 1.358 1.059 2.207 1.466.85.326 1.784.57 2.802.57 1.02 0 1.953-.163 2.803-.57a6.813 6.813 0 0 0 2.292-1.466c.595-.652 1.104-1.303 1.444-2.2.34-.814.509-1.71.509-2.606v-.081c0-.896-.17-1.792-.51-2.607-.34-.733-.849-1.466-1.528-2.036ZM53.203 8.578c0-2.932-2.547-5.295-5.604-5.295s-5.604 2.525-5.604 5.54c0 1.791.934 3.338 2.377 4.316 0 0-.085 0-.085.081-.51.326-.849.733-1.273 1.14-.34.49-.68.978-.935 1.467v-3.421h-2.037v12.95h2.037v-5.13c0-.978.17-1.793.425-2.607a4.805 4.805 0 0 1 1.189-1.874c.51-.488 1.104-.814 1.698-1.14a4.762 4.762 0 0 1 2.123-.489h.17v-1.792c-1.953 0-3.652-1.791-3.652-3.665 0-1.955 1.699-3.665 3.567-3.665 1.953 0 3.566 1.547 3.566 3.42v13.44c0 .652.085 1.222.255 1.71.17.49.424.815.764 1.14.34.327.764.49 1.189.652.51.163 1.019.163 1.528.163.51 0 .934-.081 1.359-.162.424-.082.764-.245 1.103-.408V23.32c-.34.163-.679.245-1.019.326-.34.081-.594.081-1.018.081-.68 0-1.19-.162-1.614-.488-.424-.326-.594-.896-.594-1.71v-7.576h4.33v-1.71h-4.33V8.578h.085ZM60.675 18.189c.085-.652.255-1.222.51-1.71.254-.57.594-.978.933-1.385.425-.408.85-.733 1.359-.896.51-.245 1.019-.326 1.613-.326.68 0 1.274.081 1.784.326.509.244.934.57 1.273.977.34.407.68.896.85 1.385.17.489.339 1.059.424 1.629h-8.746Zm9.085-3.91c-.509-.651-1.188-1.14-1.953-1.466-.764-.326-1.698-.57-2.632-.57-.934 0-1.783.163-2.632.489a5.844 5.844 0 0 0-2.038 1.466 6.516 6.516 0 0 0-1.358 2.199c-.34.814-.51 1.71-.51 2.688 0 .977.17 1.955.51 2.77.34.814.849 1.547 1.443 2.117a7.256 7.256 0 0 0 2.123 1.384c.849.326 1.698.49 2.632.49 1.274 0 2.378-.245 3.227-.652.849-.408 1.613-1.06 2.292-1.792l-1.273-1.06a6.99 6.99 0 0 1-1.868 1.304c-.68.326-1.444.489-2.463.489-.594 0-1.189-.082-1.698-.326-.51-.163-1.019-.489-1.444-.815a6.25 6.25 0 0 1-1.103-1.384 6.266 6.266 0 0 1-.51-1.792h10.699v-.733c0-.978-.17-1.874-.425-2.688-.254-.815-.424-1.548-1.019-2.118ZM82.922 12.65c-.68-.244-1.359-.407-2.208-.407-1.189 0-2.123.244-2.887.733-.764.489-1.358 1.059-1.783 1.792v-2.28h-2.038v12.95h2.038v-7.412c0-.57.085-1.14.34-1.63.17-.488.509-.895.849-1.302.34-.326.764-.652 1.273-.815.51-.163 1.02-.326 1.614-.326 1.188 0 2.122.326 2.802 1.06.679.732.934 1.628.934 2.85v7.575h2.038v-8.064c0-.733-.085-1.466-.34-2.117-.255-.652-.594-1.222-1.019-1.63-.424-.407-1.019-.732-1.613-.977ZM97.187 19.33c-.425-.245-.85-.49-1.359-.734l-1.528-.488c-.425-.163-.85-.245-1.274-.408-.424-.163-.764-.244-1.104-.488-.34-.163-.594-.326-.764-.57a1.337 1.337 0 0 1-.255-.815v-.082c0-.57.255-.977.68-1.303a3.435 3.435 0 0 1 1.953-.57c.679 0 1.358.082 2.037.326.68.244 1.359.57 1.953.896l.934-1.466c-.679-.408-1.443-.815-2.292-1.06-.85-.243-1.698-.406-2.547-.406-.68 0-1.274.081-1.868.244a3.969 3.969 0 0 0-1.444.733c-.425.326-.764.733-.934 1.14-.255.489-.34.978-.34 1.548v.081c0 .57.17 1.14.425 1.466.255.408.594.734 1.019.978a7.67 7.67 0 0 0 1.443.651c.51.163 1.02.326 1.614.49.424.08.849.244 1.273.406.425.163.764.326 1.104.49.34.162.594.406.764.65.17.245.255.49.255.815v.082c0 .651-.255 1.14-.764 1.466-.51.407-1.189.57-2.038.57-.764 0-1.613-.163-2.377-.407-.765-.245-1.529-.733-2.293-1.222l-1.02 1.385c.765.57 1.614 1.058 2.633 1.384 1.02.326 1.953.489 2.972.489.68 0 1.274-.081 1.868-.244a4.383 4.383 0 0 0 1.529-.733 3.636 3.636 0 0 0 1.018-1.222c.255-.489.34-1.06.34-1.63v-.08c0-.57-.085-1.06-.34-1.467-.509-.326-.849-.651-1.273-.896ZM102.366 18.189c.085-.652.255-1.222.51-1.71.255-.57.594-.978.934-1.385.424-.408.849-.733 1.358-.896.51-.245 1.019-.326 1.614-.326.679 0 1.273.081 1.783.326.509.244.934.57 1.274.977.339.407.679.896.849 1.385.169.489.339 1.059.424 1.629h-8.746Zm9.086-3.91c-.51-.651-1.189-1.14-1.953-1.466-.764-.326-1.698-.57-2.632-.57-.934 0-1.783.163-2.633.489a5.84 5.84 0 0 0-2.037 1.466 6.512 6.512 0 0 0-1.359 2.199c-.34.814-.51 1.71-.51 2.688 0 .977.17 1.955.51 2.77.34.814.849 1.547 1.443 2.117a7.267 7.267 0 0 0 2.123 1.384 7.175 7.175 0 0 0 2.632.49c1.274 0 2.378-.245 3.227-.652.849-.408 1.613-1.06 2.293-1.792l-1.274-1.06a6.988 6.988 0 0 1-1.868 1.304c-.679.326-1.444.489-2.462.489-.595 0-1.189-.082-1.699-.326-.509-.163-1.019-.489-1.443-.815a6.248 6.248 0 0 1-1.104-1.384 6.227 6.227 0 0 1-.509-1.792h10.698v-.733c0-.978-.169-1.874-.424-2.688-.085-.815-.51-1.548-1.019-2.118ZM127.16 15.338c-.254-.652-.594-1.222-1.018-1.629-.425-.489-1.019-.814-1.614-1.059-.679-.244-1.358-.407-2.207-.407-1.189 0-2.123.244-2.887.733-.765.489-1.359 1.059-1.784 1.792v-2.28h-2.037v12.95h2.037v-7.412c0-.57.085-1.14.34-1.63.17-.488.51-.895.849-1.302.34-.326.764-.652 1.274-.815.509-.163 1.019-.326 1.613-.326 1.189 0 2.123.326 2.802 1.06.68.732.934 1.628.934 2.85v7.575h2.038v-8.064c.085-.733-.085-1.384-.34-2.036Z" fill="currentColor"/></svg>
